<svg width="24" height="24" viewBox="0 0 24 24" fill="none" xmlns="http://www.w3.org/2000/svg">
    <path fill-rule="evenodd" clip-rule="evenodd"
          d="M19.761 12.7178C19.761 13.5313 20.429 14.1932 21.25 14.1932C21.664 14.1932 22 14.5261 22 14.9363V17.6126C22 19.8758 20.142 21.7168 17.858 21.7168H6.143C3.859 21.7168 2 19.8758 2 17.6126V14.9363C2 14.5261 2.336 14.1932 2.75 14.1932C3.572 14.1932 4.24 13.5313 4.24 12.7178C4.24 11.9251 3.599 11.3286 2.75 11.3286C2.551 11.3286 2.361 11.2503 2.22 11.1106C2.079 10.9709 2 10.7816 2 10.5855L2.002 7.82194C2.002 5.55881 3.86 3.7168 6.144 3.7168H17.856C20.14 3.7168 21.999 5.55881 21.999 7.82194L22 10.4992C22 10.6954 21.921 10.8857 21.781 11.0244C21.64 11.1641 21.45 11.2424 21.25 11.2424C20.429 11.2424 19.761 11.9043 19.761 12.7178ZM14.252 13.3648L15.431 12.2273C15.636 12.0311 15.707 11.7418 15.618 11.4743C15.53 11.2067 15.3 11.0165 15.022 10.9778L13.393 10.742L12.664 9.2795C12.539 9.02782 12.285 8.87126 12.002 8.87027H12C11.718 8.87027 11.464 9.02683 11.337 9.27851L10.608 10.742L8.982 10.9768C8.701 11.0165 8.471 11.2067 8.382 11.4743C8.294 11.7418 8.365 12.0311 8.569 12.2273L9.748 13.3648L9.47 14.973C9.422 15.2504 9.535 15.5259 9.765 15.6914C9.895 15.7835 10.046 15.8311 10.199 15.8311C10.316 15.8311 10.434 15.8023 10.542 15.7459L12 14.9869L13.455 15.7439C13.707 15.8776 14.006 15.8568 14.235 15.6904C14.466 15.5259 14.579 15.2504 14.531 14.973L14.252 13.3648Z"
          fill="#5D6589"/>
</svg>