<svg width="24" height="24" viewBox="0 0 24 24" fill="none" xmlns="http://www.w3.org/2000/svg">
    <path fill-rule="evenodd" clip-rule="evenodd"
          d="M19.761 12.2178C19.761 13.0313 20.429 13.6932 21.25 13.6932C21.664 13.6932 22 14.0261 22 14.4363V17.1126C22 19.3758 20.142 21.2168 17.858 21.2168H6.143C3.859 21.2168 2 19.3758 2 17.1126V14.4363C2 14.0261 2.336 13.6932 2.75 13.6932C3.572 13.6932 4.24 13.0313 4.24 12.2178C4.24 11.4251 3.599 10.8286 2.75 10.8286C2.551 10.8286 2.361 10.7503 2.22 10.6106C2.079 10.4709 2 10.2816 2 10.0855L2.002 7.32194C2.002 5.05881 3.86 3.2168 6.144 3.2168H17.856C20.14 3.2168 21.999 5.05881 21.999 7.32194L22 9.99925C22 10.1954 21.921 10.3857 21.781 10.5244C21.64 10.6641 21.45 10.7424 21.25 10.7424C20.429 10.7424 19.761 11.4043 19.761 12.2178ZM14.252 12.8648L15.431 11.7273C15.636 11.5311 15.707 11.2418 15.618 10.9743C15.53 10.7067 15.3 10.5165 15.022 10.4778L13.393 10.242L12.664 8.7795C12.539 8.52782 12.285 8.37126 12.002 8.37027H12C11.718 8.37027 11.464 8.52683 11.337 8.77851L10.608 10.242L8.982 10.4768C8.701 10.5165 8.471 10.7067 8.382 10.9743C8.294 11.2418 8.365 11.5311 8.569 11.7273L9.748 12.8648L9.47 14.473C9.422 14.7504 9.535 15.0259 9.765 15.1914C9.895 15.2835 10.046 15.3311 10.199 15.3311C10.316 15.3311 10.434 15.3023 10.542 15.2459L12 14.4869L13.455 15.2439C13.707 15.3776 14.006 15.3568 14.235 15.1904C14.466 15.0259 14.579 14.7504 14.531 14.473L14.252 12.8648Z"
          fill="#B2B3B5"/>
</svg>