<svg width="24" height="24" viewBox="0 0 24 24" fill="none" xmlns="http://www.w3.org/2000/svg">
    <path fill-rule="evenodd" clip-rule="evenodd"
          d="M16.939 3.2168C18.28 3.2168 19.57 3.7468 20.519 4.6978C21.469 5.6468 22 6.9268 22 8.2668V16.1668C22 18.9568 19.73 21.2168 16.939 21.2168H7.06C4.269 21.2168 2 18.9568 2 16.1668V8.2668C2 5.4768 4.259 3.2168 7.06 3.2168H16.939ZM18.53 9.7568L18.61 9.6768C18.849 9.3868 18.849 8.9668 18.599 8.6768C18.46 8.5278 18.269 8.4368 18.07 8.4168C17.86 8.4058 17.66 8.4768 17.509 8.6168L13 12.2168C12.42 12.6978 11.589 12.6978 11 12.2168L6.5 8.6168C6.189 8.3868 5.759 8.4168 5.5 8.6868C5.23 8.9568 5.2 9.3868 5.429 9.6868L5.56 9.8168L10.11 13.3668C10.67 13.8068 11.349 14.0468 12.06 14.0468C12.769 14.0468 13.46 13.8068 14.019 13.3668L18.53 9.7568Z"
          fill="#B2B3B5"/>
</svg>