<svg width="24" height="24" viewBox="0 0 24 24" fill="none" xmlns="http://www.w3.org/2000/svg">
    <path fill-rule="evenodd" clip-rule="evenodd"
          d="M17.5227 7.6128V9.14614C19.2451 9.68375 20.5 11.2429 20.5 13.1052V18.0421C20.5 20.3476 18.5886 22.2168 16.2322 22.2168H7.7688C5.41136 22.2168 3.5 20.3476 3.5 18.0421V13.1052C3.5 11.2429 4.75595 9.68375 6.47729 9.14614V7.6128C6.48745 4.63158 8.95667 2.2168 11.9848 2.2168C15.0535 2.2168 17.5227 4.63158 17.5227 7.6128ZM12.0051 3.95584C14.0678 3.95584 15.7445 5.59551 15.7445 7.6128V8.9305H8.25553V7.59293C8.26569 5.58557 9.94232 3.95584 12.0051 3.95584ZM12.8891 16.6717C12.8891 17.1587 12.4928 17.5462 11.9949 17.5462C11.5072 17.5462 11.1109 17.1587 11.1109 16.6717V14.4656C11.1109 13.9886 11.5072 13.6011 11.9949 13.6011C12.4928 13.6011 12.8891 13.9886 12.8891 14.4656V16.6717Z"
          fill="#B2B3B5"/>
</svg>