<svg width="24" height="24" viewBox="0 0 24 24" fill="none" xmlns="http://www.w3.org/2000/svg">
    <path fill-rule="evenodd" clip-rule="evenodd"
          d="M17.5227 8.1128V9.64614C19.2451 10.1838 20.5 11.7429 20.5 13.6052V18.5421C20.5 20.8476 18.5886 22.7168 16.2322 22.7168H7.7688C5.41136 22.7168 3.5 20.8476 3.5 18.5421V13.6052C3.5 11.7429 4.75595 10.1838 6.47729 9.64614V8.1128C6.48745 5.13158 8.95667 2.7168 11.9848 2.7168C15.0535 2.7168 17.5227 5.13158 17.5227 8.1128ZM12.0051 4.45584C14.0678 4.45584 15.7445 6.09551 15.7445 8.1128V9.4305H8.25553V8.09293C8.26569 6.08557 9.94232 4.45584 12.0051 4.45584ZM12.8891 17.1717C12.8891 17.6587 12.4928 18.0462 11.9949 18.0462C11.5072 18.0462 11.1109 17.6587 11.1109 17.1717V14.9656C11.1109 14.4886 11.5072 14.1011 11.9949 14.1011C12.4928 14.1011 12.8891 14.4886 12.8891 14.9656V17.1717Z"
          fill="#5D6589"/>
</svg>