<svg width="24" height="24" viewBox="0 0 24 24" fill="none" xmlns="http://www.w3.org/2000/svg">
    <g clip-path="url(#clip0_6756_63957)">
        <g clip-path="url(#clip1_6756_63957)">
            <path d="M15.4093 18.9549C14.7269 18.4207 13.9677 18.3846 13.6899 18.3855H9.18567V16.8717H12.0012C12.1077 16.8643 12.2595 16.8477 12.4373 16.8051C13.2363 16.6153 13.7298 16.1125 13.8723 15.9579C14.3205 15.47 14.4723 14.9626 14.5445 14.7108C14.7251 14.0794 14.6528 13.6109 14.6167 13.4331C14.5704 13.2007 14.5093 13.0822 14.4408 12.9915C14.2834 12.7804 14.0057 12.6109 13.6844 12.6165C13.3631 12.6211 13.1483 12.7989 13.0854 12.8526C12.8215 13.0767 12.7613 13.3674 12.7465 13.4516V14.2636C12.7215 14.3534 12.6447 14.5858 12.4197 14.7719C12.253 14.9089 12.0817 14.9589 11.9901 14.9774H11.8382C11.1633 14.9876 10.4846 14.9959 9.80414 15.0015C8.04316 15.0163 6.30163 15.0163 4.57954 15.0015C4.48788 14.9858 4.1842 14.9228 3.95552 14.6506C3.81664 14.4849 3.76479 14.3117 3.7435 14.2145C3.6648 12.31 3.67776 10.8768 3.7435 10.3158C3.76572 10.125 3.81386 9.85468 4.02218 9.64358C4.22124 9.44175 4.45363 9.38712 4.54251 9.37138H8.36258C8.44869 9.35842 8.71811 9.30472 8.93754 9.06863C9.10419 8.88901 9.15882 8.69366 9.17826 8.602V4.67175C9.17826 4.15882 8.76255 3.74219 8.2487 3.74219C7.73578 3.74219 7.31915 4.1579 7.31915 4.67175V7.16785C7.31915 7.28173 7.34044 7.39005 7.3784 7.49097C7.35063 7.49653 7.3247 7.50116 7.30248 7.50579H4.51751C4.24438 7.53264 3.80738 7.61319 3.3426 7.8752C2.60099 8.29369 2.26583 8.90846 2.18621 9.06215C1.94178 9.53433 1.88531 9.97226 1.87142 10.2371V11.2601H0.823351C0.746505 11.2666 0.474304 11.3009 0.25395 11.5268C0.014154 11.773 0.0030437 12.0758 0.000266139 12.1628C-0.000659716 12.2138 -0.00251143 12.361 0.0595208 12.5202C0.237285 12.9702 0.77428 13.0989 0.840942 13.1137H1.87605V14.2701C1.89734 14.4377 1.94178 14.6765 2.03992 14.9478C2.13251 15.2052 2.35194 15.7885 2.93615 16.2616C3.52962 16.7421 4.16476 16.8365 4.43141 16.8606H7.32563V18.3679H2.71209C2.48526 18.3874 1.36405 18.504 0.599294 19.4576C0.176178 19.9845 0.0465589 20.5381 0.00119199 20.8316V23.2046C0.0169315 23.2888 0.0752603 23.536 0.29654 23.7434C0.502079 23.936 0.729839 23.9841 0.81687 23.998H15.7342C15.825 23.9758 16.1092 23.8925 16.3157 23.6166C16.4546 23.4305 16.4953 23.2425 16.5092 23.1444V20.9409C16.4768 20.7279 16.411 20.427 16.261 20.0937C16.1601 19.8687 15.9259 19.3623 15.4074 18.9558H15.4093V18.9549ZM14.6288 22.1185H1.87882C1.88068 21.7399 1.8816 21.3621 1.88345 20.9834C1.9066 20.8936 1.96771 20.7038 2.13806 20.5353C2.38156 20.2937 2.67876 20.2641 2.76209 20.2585H13.852C13.9325 20.2742 14.2057 20.3372 14.4149 20.59C14.5843 20.7946 14.6204 21.0131 14.6297 21.101V22.1185H14.6288Z"
                  fill="#D0FF00"/>
            <path d="M23.7588 0.299051C23.5459 0.0694391 23.2866 0.0148137 23.2015 0H11.644C11.5579 0.0166654 11.3366 0.0722167 11.1478 0.268498C10.8969 0.529589 10.8876 0.849934 10.8876 0.922151C10.8876 4.08672 10.8867 7.25222 10.8857 10.4168C10.895 10.4936 10.9181 10.6103 10.9839 10.7362C11.1737 11.0964 11.5412 11.1936 11.5774 11.2028C11.9088 11.2852 12.1736 11.1528 12.2375 11.1177C13.4041 10.5344 14.5706 9.95108 15.7372 9.3678H23.1237C23.2098 9.35761 23.5033 9.31039 23.7412 9.05949C23.9283 8.8632 23.9829 8.6447 24.0005 8.55119V0.777718C23.9829 0.688836 23.931 0.485148 23.7588 0.299051ZM22.1543 7.50405H15.3854C14.5077 7.94013 13.63 8.37621 12.7523 8.81136V1.86097H22.1543V7.50313V7.50405Z"
                  fill="#D0FF00"/>
            <path d="M15.5366 5.61524C16.0536 5.61524 16.4727 5.19616 16.4727 4.6792C16.4727 4.16224 16.0536 3.74316 15.5366 3.74316C15.0197 3.74316 14.6006 4.16224 14.6006 4.6792C14.6006 5.19616 15.0197 5.61524 15.5366 5.61524Z"
                  fill="#D0FF00"/>
            <path d="M19.3325 5.61524C19.8495 5.61524 20.2686 5.19616 20.2686 4.6792C20.2686 4.16224 19.8495 3.74316 19.3325 3.74316C18.8156 3.74316 18.3965 4.16224 18.3965 4.6792C18.3965 5.19616 18.8156 5.61524 19.3325 5.61524Z"
                  fill="#D0FF00"/>
            <path d="M6.3833 13.1445C6.90026 13.1445 7.31934 12.7255 7.31934 12.2085C7.31934 11.6915 6.90026 11.2725 6.3833 11.2725C5.86634 11.2725 5.44727 11.6915 5.44727 12.2085C5.44727 12.7255 5.86634 13.1445 6.3833 13.1445Z"
                  fill="#D0FF00"/>
        </g>
    </g>
    <defs>
        <clipPath id="clip0_6756_63957">
            <rect width="24" height="24" fill="white"/>
        </clipPath>
        <clipPath id="clip1_6756_63957">
            <rect width="24" height="23.9981" fill="white"/>
        </clipPath>
    </defs>
</svg>