<svg width="31" height="32" viewBox="0 0 31 32" fill="none" xmlns="http://www.w3.org/2000/svg">
<g clip-path="url(#clip0_1076_12990)">
<circle cx="15.5001" cy="15.9991" r="15.0069" fill="#34384C"/>
<path d="M15.5181 23.9085C13.2965 23.9085 11.4168 23.1396 9.87901 21.6018C8.34124 20.0641 7.57265 18.1847 7.57324 15.9637C7.57324 13.9333 8.23531 12.1713 9.55945 10.6777C10.8836 9.18407 12.5755 8.31249 14.6353 8.06296C15.0031 8.01883 15.29 8.15124 15.496 8.4602C15.702 8.76917 15.6946 9.09285 15.4739 9.43124C15.2238 9.81377 15.0361 10.2184 14.9107 10.645C14.7854 11.0717 14.723 11.5204 14.7236 11.9912C14.7236 13.3154 15.187 14.4409 16.1139 15.3678C17.0408 16.2947 18.1663 16.7581 19.4905 16.7581C19.9466 16.7581 20.3991 16.6919 20.8482 16.5595C21.2972 16.4271 21.698 16.2432 22.0505 16.0078C22.3594 15.8018 22.6758 15.7909 22.9994 15.9751C23.3231 16.1593 23.4629 16.4498 23.4188 16.8464C23.2128 18.8768 22.3486 20.5614 20.8261 21.9002C19.3036 23.2391 17.5343 23.9085 15.5181 23.9085Z" fill="#FFB800"/>
</g>
<defs>
<clipPath id="clip0_1076_12990">
<rect width="30.0138" height="30.0138" fill="white" transform="translate(0.493164 0.992188)"/>
</clipPath>
</defs>
</svg>
