<svg width="24" height="21" viewBox="0 0 24 21" fill="none" xmlns="http://www.w3.org/2000/svg">
    <g clip-path="url(#clip0_6756_63964)">
        <path d="M23.9967 2.11023C23.9514 1.73588 23.6112 1.46875 23.2378 1.51404L23.0927 1.5316C22.808 0.643328 21.9761 0 20.9935 0C19.7762 0 18.79 0.987175 18.79 2.20358C18.79 2.4513 18.8316 2.68885 18.9064 2.91069L16.2777 4.87395C15.919 4.62161 15.4818 4.47279 15.0104 4.47279C14.3116 4.47279 13.6896 4.79815 13.2856 5.30468L11.2401 4.54766C11.2401 4.5227 11.242 4.49775 11.242 4.47279C11.242 3.25546 10.2548 2.26921 9.03837 2.26921C7.82197 2.26921 6.83479 3.25638 6.83479 4.47279C6.83479 4.49128 6.83571 4.50976 6.83664 4.52825L4.71902 5.29729C4.31509 4.79538 3.6958 4.47279 3.00071 4.47279C2.03664 4.47279 1.21677 5.09209 0.918211 5.9554L0.540163 6.03582C0.171359 6.11439 -0.0634186 6.47672 0.0151487 6.84552C0.093716 7.21433 0.45605 7.4491 0.824854 7.37054L0.903421 7.3539C1.18904 8.2394 2.02 8.87995 3.00071 8.87995C4.21804 8.87995 5.20429 7.89278 5.20429 6.67637C5.20429 6.64217 5.20336 6.60797 5.20152 6.57377L7.29048 5.81491C7.69349 6.339 8.32572 6.67637 9.03837 6.67637C9.75102 6.67637 10.3703 6.34547 10.7733 5.83062L12.8078 6.58394C12.8068 6.61444 12.805 6.64587 12.805 6.67637C12.805 7.8937 13.7922 8.87995 15.0086 8.87995C16.225 8.87995 17.2121 7.89278 17.2121 6.67637C17.2121 6.42773 17.1705 6.18926 17.0948 5.96649L19.7217 4.00416C20.0803 4.25835 20.5184 4.40716 20.9917 4.40716C21.9632 4.40716 22.7867 3.77863 23.0797 2.90699L23.3986 2.86817C23.773 2.82288 24.0401 2.48273 23.9948 2.1093H23.9967V2.11023ZM2.99978 7.47221C2.56073 7.47221 2.20394 7.11635 2.20394 6.67637C2.20394 6.2364 2.55981 5.88053 2.99978 5.88053C3.43976 5.88053 3.79562 6.2364 3.79562 6.67637C3.79562 7.11635 3.43976 7.47221 2.99978 7.47221ZM9.03837 5.26863C8.59932 5.26863 8.24253 4.91277 8.24253 4.47279C8.24253 4.03281 8.5984 3.67695 9.03837 3.67695C9.47835 3.67695 9.83421 4.03281 9.83421 4.47279C9.83421 4.91277 9.47835 5.26863 9.03837 5.26863ZM15.0095 7.47221C14.5704 7.47221 14.2136 7.11635 14.2136 6.67637C14.2136 6.2364 14.5695 5.88053 15.0095 5.88053C15.4495 5.88053 15.8053 6.2364 15.8053 6.67637C15.8053 7.11635 15.4495 7.47221 15.0095 7.47221ZM20.9935 2.99942C20.5545 2.99942 20.1977 2.64356 20.1977 2.20358C20.1977 1.7636 20.5536 1.40774 20.9935 1.40774C21.4335 1.40774 21.7894 1.7636 21.7894 2.20358C21.7894 2.64356 21.4335 2.99942 20.9935 2.99942Z"
              fill="#D0FF00"/>
        <path d="M4.52438 12.7336H3.75165L3.74795 11.9535C3.7461 11.5514 3.4152 11.2242 3.01312 11.2261C2.61104 11.2279 2.28383 11.5588 2.28568 11.9609L2.28937 12.7336H1.54992C1.15153 12.7336 0.826172 13.0599 0.826172 13.4574V18.6438C0.826172 19.0421 1.15246 19.3675 1.54992 19.3675H2.32265L2.32635 20.1144C2.32819 20.5164 2.6591 20.8436 3.06118 20.8418C3.46326 20.8399 3.79047 20.509 3.78862 20.107L3.78492 19.3675H4.52438C4.92276 19.3675 5.24812 19.0412 5.24812 18.6438V13.4574C5.24812 13.059 4.92184 12.7336 4.52438 12.7336ZM3.83206 17.9477H2.24038V14.122H3.83206V17.9477Z"
              fill="#D0FF00"/>
        <path d="M10.5254 10.5574H9.75263L9.74893 9.77725C9.74708 9.37517 9.41617 9.04796 9.01409 9.04981C8.61201 9.05166 8.2848 9.38257 8.28665 9.78465L8.29035 10.5574H7.55089C7.15251 10.5574 6.82715 10.8837 6.82715 11.2811V16.4675C6.82715 16.8659 7.15343 17.1912 7.55089 17.1912H8.32362L8.32732 17.9381C8.32917 18.3402 8.66008 18.6674 9.06216 18.6655C9.46424 18.6637 9.79145 18.3328 9.7896 17.9307L9.7859 17.1912H10.5254C10.9237 17.1912 11.2491 16.8649 11.2491 16.4675V11.2811C11.2491 10.8827 10.9228 10.5574 10.5254 10.5574ZM9.83304 15.7715H8.24136V11.9457H9.83304V15.7715Z"
              fill="#D0FF00"/>
        <path d="M16.5048 12.7336H15.7321L15.7284 11.9535C15.7266 11.5514 15.3957 11.2242 14.9936 11.2261C14.5915 11.2279 14.2643 11.5588 14.2661 11.9609L14.2698 12.7336H13.5304C13.132 12.7336 12.8066 13.0599 12.8066 13.4574V18.6438C12.8066 19.0421 13.1329 19.3675 13.5304 19.3675H14.3031L14.3068 20.1144C14.3087 20.5164 14.6396 20.8436 15.0416 20.8418C15.4437 20.8399 15.7709 20.509 15.7691 20.107L15.7654 19.3675H16.5048C16.9032 19.3675 17.2286 19.0412 17.2286 18.6438V13.4574C17.2286 13.059 16.9023 12.7336 16.5048 12.7336ZM15.8125 17.9477H14.2209V14.122H15.8125V17.9477Z"
              fill="#D0FF00"/>
        <path d="M22.4804 8.14137H21.7077L21.704 7.36124C21.7022 6.95916 21.3713 6.63195 20.9692 6.6338C20.5671 6.63565 20.2399 6.96655 20.2417 7.36863L20.2454 8.14137H19.506C19.1076 8.14137 18.7822 8.46765 18.7822 8.86511V14.0515C18.7822 14.4499 19.1085 14.7752 19.506 14.7752H20.2787L20.2824 15.5221C20.2842 15.9241 20.6152 16.2514 21.0172 16.2495C21.4193 16.2477 21.7465 15.9168 21.7447 15.5147L21.741 14.7752H22.4804C22.8788 14.7752 23.2042 14.4489 23.2042 14.0515V8.86511C23.2042 8.46673 22.8779 8.14137 22.4804 8.14137ZM21.789 13.3555H20.1974V9.5297H21.789V13.3555Z"
              fill="#D0FF00"/>
    </g>
    <defs>
        <clipPath id="clip0_6756_63964">
            <rect width="24" height="20.8416" fill="white"/>
        </clipPath>
    </defs>
</svg>