<svg width="24" height="24" viewBox="0 0 24 24" fill="none" xmlns="http://www.w3.org/2000/svg">
    <path d="M23.6833 9.67926C23.4306 9.0978 23.0926 8.69411 22.8565 8.45338C20.0927 5.94699 17.329 3.44061 14.5652 0.934223C14.3189 0.72775 13.3921 0.00092589 12.006 0C10.5366 0 9.57185 0.814783 9.34501 1.01755C6.58401 3.53042 3.823 6.04236 1.06292 8.55523C0.851819 8.78392 0.563867 9.14872 0.336098 9.65704C0.109255 10.1635 0.0296285 10.619 0 10.9283V20.29C0.0342579 20.639 0.189808 21.7566 1.11292 22.7325C2.09159 23.7676 3.28413 23.9565 3.6193 23.9981H20.339C20.6307 23.962 22.2149 23.7352 23.2361 22.3241C23.8815 21.4325 23.9806 20.5112 24 20.1048V10.8959C23.9694 10.5903 23.8926 10.1579 23.6843 9.67926H23.6833ZM21.4751 20.3168C21.4557 20.4575 21.3982 20.7316 21.2029 21.0112C21.139 21.1029 20.9538 21.3464 20.6261 21.5149C20.3474 21.6584 20.0909 21.6871 19.9492 21.6918H3.97022C3.82393 21.689 3.5582 21.664 3.27117 21.5149C3.21099 21.4844 2.94618 21.3418 2.71749 21.0381C2.52768 20.7862 2.40176 20.4807 2.39157 20.1631C2.3675 19.4187 2.39343 18.6724 2.39343 17.928V11.1199C2.40176 10.9968 2.42861 10.8079 2.52213 10.5996C2.60453 10.4153 2.7073 10.282 2.78508 10.1959C2.87674 10.1191 3.01562 10.0005 3.18506 9.85518C4.59149 8.64596 5.58127 7.67841 5.83218 7.4349C6.58123 6.70808 8.02469 5.37757 11.0403 2.73971C11.1764 2.6536 11.5116 2.4675 11.9755 2.4675C12.3671 2.4675 12.6606 2.60083 12.8023 2.67675C15.5235 5.14239 18.2456 7.60804 20.9668 10.0737C21.0603 10.1978 21.164 10.357 21.2575 10.5505C21.3723 10.7885 21.4371 11.007 21.4751 11.182V20.3177V20.3168Z"
          fill="#D0FF00"/>
</svg>