<svg width="24" height="25" viewBox="0 0 24 25" fill="none" xmlns="http://www.w3.org/2000/svg">
<g clip-path="url(#clip0_11965_10611)">
<path d="M4.93306 20.2168H1.10352V24.0463H4.93306V20.2168Z" fill="#DCFA1E" fill-opacity="0.878431"/>
<path d="M10.7451 14.0759H6.91553V24.0463H10.7451V14.0759Z" fill="#DCFA1E" fill-opacity="0.878431"/>
<path d="M16.5571 17.3198H12.7275V24.0508H16.5571V17.3198Z" fill="#DCFA1E" fill-opacity="0.878431"/>
<path d="M22.3735 9.85889H18.5439V24.0462H22.3735V9.85889Z" fill="#DCFA1E" fill-opacity="0.878431"/>
<path d="M19.9315 4.01098C20.0982 4.05604 20.2739 4.08757 20.4586 4.08757C21.5714 4.08757 22.477 3.182 22.477 2.06918C22.477 0.956357 21.5714 0.0507812 20.4586 0.0507812C19.3458 0.0507812 18.4402 0.956357 18.4402 2.06918C18.4402 2.53323 18.6024 2.95673 18.8682 3.29914L15.1693 8.84973C15.0026 8.80468 14.8269 8.77314 14.6422 8.77314C14.088 8.77314 13.5879 8.99841 13.223 9.35883L10.8172 8.13789C10.8307 8.04327 10.8487 7.94415 10.8487 7.84504C10.8487 6.73221 9.94312 5.82664 8.8303 5.82664C7.71748 5.82664 6.8119 6.73221 6.8119 7.84504C6.8119 8.25953 6.93805 8.64248 7.1498 8.96236L3.68519 13.4091C3.47344 13.3371 3.25268 13.2875 3.0184 13.2875C1.90558 13.2875 1 14.1931 1 15.3059C1 16.4187 1.90558 17.3243 3.0184 17.3243C4.13122 17.3243 5.03679 16.4187 5.03679 15.3059C5.03679 14.8914 4.91064 14.5084 4.69889 14.1886L8.16351 9.74179C8.37526 9.81388 8.59602 9.86343 8.8303 9.86343C9.38446 9.86343 9.88455 9.63817 10.2495 9.27774L12.6553 10.4987C12.6418 10.5933 12.6238 10.6924 12.6238 10.7915C12.6238 11.9044 13.5294 12.8099 14.6422 12.8099C15.755 12.8099 16.6606 11.9044 16.6606 10.7915C16.6606 10.3275 16.4984 9.90398 16.2326 9.56157L19.9315 4.01098Z" fill="#DCFA1E" fill-opacity="0.878431"/>
</g>
<defs>
<clipPath id="clip0_11965_10611">
<rect width="21.477" height="24" fill="white" transform="translate(1 0.0507812)"/>
</clipPath>
</defs>
</svg>
