<svg width="24" height="25" viewBox="0 0 24 25" fill="none" xmlns="http://www.w3.org/2000/svg">
<path d="M23.8656 11.389C23.7741 11.1687 23.6434 10.9689 23.4622 10.7859C23.2886 10.6122 23.0869 10.4778 22.861 10.3844C22.635 10.291 22.396 10.2425 22.1514 10.2425H21.3933C21.369 9.84849 21.2794 9.46384 21.1281 9.09785C20.947 8.66465 20.6856 8.27439 20.3514 7.94015C20.019 7.60404 19.6269 7.34262 19.1918 7.1615C18.7586 6.98037 18.2992 6.88887 17.8268 6.88887H13.0727V5.832C13.2091 5.74984 13.3379 5.64901 13.4649 5.52577C13.6553 5.33531 13.8028 5.1131 13.9074 4.86289C14.0101 4.61454 14.0605 4.35312 14.0605 4.0861C14.0605 3.81908 14.0082 3.55767 13.9055 3.30745C13.8028 3.05911 13.6535 2.8369 13.4649 2.64644C13.2763 2.45598 13.0522 2.30846 12.802 2.2039C12.5536 2.1012 12.2922 2.05078 12.0252 2.05078C11.7582 2.05078 11.4893 2.10306 11.2466 2.20576C10.9982 2.30846 10.776 2.45785 10.5855 2.64644C10.3951 2.83503 10.2476 3.05911 10.143 3.30932C10.0403 3.55767 9.98989 3.81908 9.98989 4.0861C9.98989 4.35312 10.0422 4.61454 10.1449 4.86289C10.2476 5.11123 10.3969 5.33344 10.5855 5.5239C10.7013 5.63967 10.8302 5.74237 10.9777 5.83013V6.88701H6.22361C5.75119 6.88701 5.29184 6.9785 4.85863 7.15963C4.42543 7.34075 4.03517 7.60217 3.70093 7.93641C3.36668 8.26878 3.10527 8.65904 2.92228 9.09598C2.76916 9.46197 2.6814 9.84476 2.65712 10.2388H1.85233C1.60772 10.2388 1.36871 10.2854 1.14464 10.3807C0.918696 10.474 0.717031 10.6085 0.543375 10.7821C0.369719 10.9558 0.233409 11.1574 0.141912 11.3815C0.048549 11.6075 0 11.8465 0 12.0911V15.624C0 15.8686 0.0466817 16.1076 0.140045 16.3316C0.231541 16.552 0.36225 16.7518 0.543375 16.9329C0.717031 17.1066 0.918696 17.2429 1.14277 17.3344C1.36871 17.4277 1.60772 17.4763 1.85233 17.4763H2.69634C2.74115 17.747 2.81584 18.0122 2.92228 18.2699C3.1034 18.7031 3.36482 19.0933 3.69906 19.4276C4.03143 19.7637 4.42356 20.0251 4.85863 20.2062C5.29184 20.3874 5.75119 20.4789 6.22361 20.4789H17.8212C18.2936 20.4789 18.753 20.3874 19.1862 20.2062C19.6194 20.0251 20.0096 19.7637 20.3439 19.4294C20.68 19.0971 20.9414 18.7049 21.1225 18.2699C21.229 18.0141 21.3055 17.7489 21.3485 17.4763H22.1477C22.6425 17.4763 23.1074 17.284 23.4566 16.9329C23.6265 16.763 23.7647 16.5557 23.8581 16.3335C23.9515 16.1076 24 15.8686 24 15.624V12.0911C24 11.8465 23.9533 11.6075 23.86 11.3834L23.8656 11.389ZM22.1887 12.0631C22.1887 12.0631 22.2 12.0761 22.2037 12.0986V15.6445C22.2037 15.6445 22.1944 15.6576 22.1887 15.665C22.1831 15.6706 22.1757 15.6762 22.1533 15.68H21.4008V12.05H22.1533H22.1682C22.1757 12.0537 22.1813 12.0575 22.1887 12.0631ZM19.5951 16.9105C19.5951 17.1439 19.5503 17.3717 19.4625 17.5846C19.3748 17.7956 19.2422 17.9954 19.0779 18.1597C18.9136 18.324 18.7194 18.4547 18.5028 18.5462C18.288 18.634 18.0621 18.6788 17.8287 18.6788H6.22734C5.99393 18.6788 5.76612 18.634 5.55326 18.5444C5.34225 18.4566 5.14432 18.324 4.97814 18.1597C4.81195 17.9954 4.68311 17.8012 4.59348 17.5846C4.50572 17.3699 4.4609 17.1439 4.4609 16.9105V11.6747H4.46277V10.4647C4.46277 10.2313 4.50759 10.0035 4.59535 9.79061C4.68311 9.57961 4.81569 9.38168 4.98 9.21549C5.14432 9.0493 5.33852 8.92046 5.55512 8.83083C5.76986 8.74307 5.9958 8.69826 6.22921 8.69826H17.8287C18.0621 8.69826 18.2899 8.74307 18.5028 8.83083C18.7138 8.91859 18.9117 9.05117 19.0779 9.21549C19.2441 9.37981 19.3729 9.57401 19.4644 9.79248C19.5522 10.0035 19.597 10.2313 19.597 10.4647V16.9105H19.5951ZM1.80752 15.6277V12.078C1.80752 12.078 1.81125 12.0743 1.81312 12.0705L1.82245 12.0612C1.82245 12.0612 1.83552 12.05 1.84113 12.0481C1.84113 12.0481 1.84673 12.0463 1.85793 12.0463H2.65526V15.6762H1.85606C1.84486 15.6762 1.83366 15.6706 1.82245 15.6613C1.81685 15.6557 1.81312 15.6501 1.80752 15.6258V15.6277Z" fill="#DCFA1E"/>
<path d="M17.9668 11.6C17.9126 11.4675 17.8454 11.3368 17.7595 11.2098C17.6792 11.0884 17.5858 10.9745 17.4813 10.8699L17.4514 10.8419L17.4458 10.8382C17.358 10.7523 17.2591 10.6739 17.1452 10.5954C17.0257 10.5152 16.895 10.4442 16.7586 10.3901C16.6298 10.3359 16.4898 10.293 16.346 10.2631C16.2041 10.2332 16.0565 10.2183 15.9072 10.2183C15.7578 10.2183 15.6159 10.2332 15.4665 10.2631C15.3208 10.293 15.1827 10.3359 15.0482 10.3919C14.91 10.4517 14.7812 10.5208 14.6636 10.5992C14.5385 10.6832 14.4264 10.7766 14.3293 10.8737C14.2266 10.9764 14.1333 11.0903 14.053 11.2098C13.9727 11.3293 13.9017 11.46 13.8476 11.5963C13.7934 11.7251 13.7505 11.8652 13.7206 12.009C13.6907 12.1509 13.6758 12.2984 13.6758 12.4478C13.6758 12.5841 13.6907 12.726 13.7206 12.8847C13.7505 13.0304 13.7934 13.1685 13.8438 13.2918C13.8961 13.4244 13.9652 13.5551 14.0511 13.682C14.1314 13.8034 14.2248 13.9173 14.3293 14.0219C14.419 14.1115 14.5198 14.1955 14.6356 14.2758L14.6486 14.287L14.6673 14.3001C14.7831 14.3767 14.9119 14.4458 15.0557 14.5055C15.1864 14.5597 15.3264 14.6026 15.4758 14.6325C15.6177 14.6605 15.7634 14.6736 15.9072 14.6736C16.0509 14.6736 16.1929 14.6605 16.3441 14.6306C16.4898 14.6007 16.6317 14.5578 16.7549 14.5055C16.8837 14.4532 17.0089 14.3879 17.1452 14.2982C17.2665 14.218 17.3804 14.1246 17.4869 14.02C17.5896 13.9173 17.6829 13.8034 17.7632 13.6839C17.8435 13.5644 17.9145 13.4337 17.9705 13.2937C18.0246 13.1629 18.0676 13.0229 18.0975 12.8735C18.1255 12.7316 18.1386 12.586 18.1386 12.4422C18.1386 12.2984 18.1255 12.1565 18.0956 12.0052C18.0657 11.8596 18.0228 11.7214 17.9724 11.5982L17.9668 11.6ZM16.3292 12.5281C16.3236 12.5579 16.3142 12.5897 16.3068 12.6046C16.2937 12.6364 16.2806 12.6606 16.2713 12.6737C16.2507 12.7036 16.2302 12.7279 16.2078 12.7503C16.1891 12.769 16.1667 12.7876 16.1499 12.7988C16.12 12.8194 16.092 12.8324 16.0752 12.8399C16.0491 12.8492 16.0229 12.8586 15.9819 12.866C15.9688 12.8698 15.9445 12.8716 15.9072 12.8716C15.881 12.8716 15.8493 12.8679 15.8119 12.8604C15.7989 12.8586 15.7858 12.8548 15.7727 12.8511L15.7447 12.8399C15.7167 12.8287 15.6906 12.8138 15.6794 12.8063C15.6495 12.7858 15.6252 12.7652 15.6028 12.7428C15.5729 12.7129 15.5561 12.6905 15.5393 12.6663C15.5281 12.6513 15.5188 12.6308 15.502 12.5916C15.5001 12.586 15.4926 12.5673 15.4814 12.5169C15.4777 12.5038 15.474 12.4795 15.474 12.4403C15.474 12.4142 15.4777 12.3824 15.4814 12.3619C15.487 12.332 15.4964 12.3021 15.5038 12.2853C15.5169 12.2536 15.53 12.2293 15.5393 12.2181C15.5617 12.1864 15.5804 12.1621 15.6028 12.1415C15.6327 12.1117 15.6551 12.0949 15.6719 12.0837C15.6924 12.0706 15.7148 12.0575 15.7559 12.0407C15.7615 12.0388 15.7802 12.0314 15.8306 12.0202C15.8437 12.0164 15.868 12.0146 15.9053 12.0146C15.9314 12.0146 15.9632 12.0183 15.9837 12.022C16.0136 12.0276 16.0435 12.037 16.079 12.0519C16.0883 12.0557 16.1032 12.0631 16.1256 12.0781L16.1462 12.093C16.163 12.1042 16.1835 12.121 16.2078 12.1434C16.2265 12.1621 16.2451 12.1845 16.2638 12.2125C16.2769 12.233 16.29 12.2555 16.3068 12.2965C16.3086 12.3021 16.3161 12.3208 16.3273 12.3712C16.331 12.3843 16.3348 12.4086 16.3348 12.4478C16.3348 12.4739 16.331 12.5057 16.3273 12.5262L16.3292 12.5281Z" fill="#DCFA1E"/>
<path d="M9.71907 14.0219C9.82177 13.9192 9.91513 13.8053 9.99542 13.6858C10.0757 13.5663 10.1467 13.4356 10.2027 13.2955C10.2568 13.1648 10.2998 13.0248 10.3278 12.8847C10.3577 12.7428 10.3726 12.5953 10.3726 12.4459C10.3726 12.3096 10.3595 12.1696 10.3278 12.009C10.2979 11.8633 10.255 11.7251 10.2046 11.6019C10.1504 11.4693 10.0832 11.3386 9.99916 11.2116C9.91886 11.0903 9.8255 10.9764 9.72093 10.8718L9.69106 10.8438C9.59956 10.7542 9.49499 10.6701 9.38296 10.5955C9.26345 10.5152 9.13275 10.4442 8.99643 10.3901C8.86573 10.3359 8.72755 10.293 8.58377 10.2631C8.44186 10.2332 8.29434 10.2183 8.14496 10.2183C7.99558 10.2183 7.84059 10.2351 7.70428 10.2649C7.55864 10.2948 7.42046 10.3378 7.29722 10.3882C7.16464 10.4423 7.03394 10.5096 6.90696 10.5955C6.78559 10.6757 6.67169 10.7691 6.56525 10.8737C6.46255 10.9764 6.36919 11.0903 6.2889 11.2098C6.2086 11.3293 6.13765 11.46 6.0835 11.5963C6.02935 11.7251 5.9864 11.8652 5.95465 12.0183C5.92664 12.1602 5.91357 12.3059 5.91357 12.4496C5.91357 12.5934 5.92665 12.7353 5.95652 12.8866C5.9864 13.0322 6.02935 13.1704 6.07976 13.2937C6.13204 13.4262 6.20113 13.5569 6.28703 13.6839C6.36732 13.8053 6.46068 13.9192 6.56525 14.0238C6.66982 14.1283 6.78185 14.2198 6.90136 14.3001C7.02086 14.3804 7.15157 14.4514 7.29162 14.5074C7.42233 14.5615 7.56237 14.6045 7.71175 14.6344C7.85367 14.6624 7.99931 14.6754 8.14309 14.6754C8.28687 14.6754 8.42878 14.6624 8.58003 14.6325C8.72568 14.6026 8.86759 14.5597 8.9927 14.5074C9.26345 14.3972 9.51553 14.2292 9.7228 14.0238L9.71907 14.0219ZM8.56323 12.5281C8.55763 12.5579 8.54829 12.5878 8.54082 12.6046C8.52775 12.6364 8.51468 12.6606 8.50534 12.6737C8.4848 12.7036 8.46426 12.7279 8.44186 12.7503C8.41198 12.7802 8.38957 12.797 8.38397 12.8007C8.35409 12.8194 8.32608 12.8343 8.30928 12.8418C8.28314 12.8511 8.257 12.8604 8.21592 12.8679C8.20285 12.8717 8.17857 12.8735 8.14123 12.8735C8.11508 12.8735 8.08521 12.8698 8.04599 12.8623C8.03292 12.8604 8.01985 12.8567 8.00678 12.853L7.97877 12.8418C7.95076 12.8306 7.92462 12.8156 7.91342 12.8082C7.88354 12.7876 7.85927 12.7671 7.83686 12.7447C7.80698 12.7148 7.79018 12.6924 7.77337 12.6681C7.76217 12.6532 7.75283 12.6326 7.73603 12.5934C7.73416 12.5897 7.72669 12.571 7.71549 12.5187C7.71175 12.5057 7.70989 12.4814 7.70989 12.444C7.70989 12.4179 7.71362 12.3862 7.71736 12.3656C7.72296 12.3357 7.73229 12.3059 7.73976 12.2891C7.75283 12.2573 7.7659 12.233 7.77524 12.22C7.79578 12.1901 7.81632 12.1658 7.83873 12.1434C7.8686 12.1135 7.89101 12.0967 7.90782 12.0855C7.92836 12.0725 7.95076 12.0594 7.99184 12.0426C7.99745 12.0407 8.01612 12.0332 8.06653 12.022C8.07961 12.0183 8.10388 12.0164 8.14123 12.0164C8.16737 12.0164 8.19911 12.0202 8.21965 12.0239C8.24953 12.0295 8.2794 12.0388 8.31488 12.0538C8.33169 12.0613 8.34849 12.0687 8.3653 12.0799L8.38397 12.093C8.40078 12.1042 8.42132 12.121 8.44559 12.1434C8.46426 12.1621 8.48294 12.1845 8.50161 12.2125C8.51468 12.233 8.52775 12.2555 8.54455 12.2965C8.54642 12.3021 8.55389 12.3208 8.5651 12.3712C8.56883 12.3843 8.5707 12.4086 8.5707 12.4459C8.5707 12.4721 8.56696 12.5038 8.56323 12.5243V12.5281Z" fill="#DCFA1E"/>
<path d="M15.1435 15.428C14.9624 15.2674 14.7215 15.1722 14.4676 15.161C14.4508 15.161 14.434 15.161 14.4172 15.161C14.1819 15.161 13.9615 15.23 13.7767 15.3626C13.448 15.5979 13.1456 15.766 12.8524 15.8761C12.5611 15.9863 12.2903 16.0404 12.0271 16.0442H12.0047C11.7488 16.0442 11.4855 15.9938 11.2241 15.8948C10.9272 15.7828 10.6266 15.6091 10.326 15.3776C10.1392 15.2357 9.90397 15.1572 9.64442 15.1572C9.39234 15.161 9.1496 15.2487 8.96847 15.3981C8.91245 15.4429 8.86017 15.4952 8.80602 15.5662C8.67718 15.7379 8.60996 15.9396 8.61556 16.1487C8.61929 16.3579 8.69398 16.5577 8.82469 16.7127C8.87137 16.7724 8.92366 16.8247 8.99461 16.8788C9.47637 17.2504 9.97866 17.5305 10.4866 17.7154C10.9814 17.8946 11.4912 17.9861 12.0028 17.9861H12.0551C12.5723 17.9787 13.0933 17.8816 13.6049 17.693C14.096 17.5119 14.5871 17.2448 15.0576 16.905C15.1155 16.8639 15.1734 16.8154 15.235 16.7481C15.3751 16.5876 15.4554 16.3934 15.4684 16.188C15.4815 15.9788 15.4199 15.7678 15.291 15.5848C15.2518 15.5307 15.207 15.4821 15.1473 15.4261L15.1435 15.428Z" fill="#DCFA1E"/>
<rect x="8.21606" y="19.7954" width="8.02925" height="2.8009" rx="1.40045" fill="#DCFA1E"/>
</svg>
