<svg width="37" height="37" viewBox="0 0 37 37" fill="none" xmlns="http://www.w3.org/2000/svg">
<path fill-rule="evenodd" clip-rule="evenodd" d="M10.8672 28.2693C10.1772 28.2693 9.61719 27.7093 9.61719 27.0193V15.5859C9.61719 14.8959 10.1772 14.3359 10.8672 14.3359C11.5572 14.3359 12.1172 14.8959 12.1172 15.5859V27.0193C12.1172 27.7093 11.5572 28.2693 10.8672 28.2693Z" fill="#00FF66"/>
<path fill-rule="evenodd" clip-rule="evenodd" d="M18.6465 28.2683C17.9565 28.2683 17.3965 27.7083 17.3965 27.0183V10.1133C17.3965 9.42328 17.9565 8.86328 18.6465 8.86328C19.3365 8.86328 19.8965 9.42328 19.8965 10.1133V27.0183C19.8965 27.7083 19.3365 28.2683 18.6465 28.2683Z" fill="#00FF66"/>
<path fill-rule="evenodd" clip-rule="evenodd" d="M26.2969 28.2689C25.6069 28.2689 25.0469 27.7089 25.0469 27.0189V21.6289C25.0469 20.9389 25.6069 20.3789 26.2969 20.3789C26.9869 20.3789 27.5469 20.9389 27.5469 21.6289V27.0189C27.5469 27.7089 26.9869 28.2689 26.2969 28.2689Z" fill="#00FF66"/>
<path fill-rule="evenodd" clip-rule="evenodd" d="M10.7727 3.16602C6.15268 3.16602 3.16602 6.32768 3.16602 11.2243V25.941C3.16602 30.8377 6.15268 33.9994 10.7727 33.9994H26.3927C31.0144 33.9994 33.9994 30.8377 33.9994 25.941V11.2243C33.9994 6.32768 31.0144 3.16602 26.3927 3.16602H10.7727ZM26.3927 36.4993H10.7727C4.72768 36.4993 0.666016 32.256 0.666016 25.941V11.2243C0.666016 4.90935 4.72768 0.666016 10.7727 0.666016H26.3927C32.4377 0.666016 36.4993 4.90935 36.4993 11.2243V25.941C36.4993 32.256 32.4377 36.4993 26.3927 36.4993Z" fill="#00FF66"/>
</svg>
