<?xml version="1.0" encoding="utf-8"?>
<!-- Generator: Adobe Illustrator 26.0.3, SVG Export Plug-In . SVG Version: 6.00 Build 0)  -->
<svg version="1.0" id="katman_1" xmlns="http://www.w3.org/2000/svg" xmlns:xlink="http://www.w3.org/1999/xlink" x="0px" y="0px"
	 viewBox="0 70 600 250" style="enable-background:new 0 70 600 250;" xml:space="preserve">
<style type="text/css">
	.st0{fill:none;}
</style>
<rect x="-103.4" y="4.6" class="st0" width="807.1" height="441.6"/>
<g>
	<g>
		<g>
			<path d="M236.5,159.3v-0.4c0-11.2,8.2-19.2,19.4-19.2c11.3,0,19.4,7.6,19.4,18.9v0.4c0,11.2-7.7,19.4-19.4,19.4
				C244,178.5,236.5,170.3,236.5,159.3z M266.3,159.2v-0.4c0-7.3-3.9-12.3-10.5-12.3c-6.5,0-10.5,4.8-10.5,12.4v0.4
				c0,7.7,4.4,12.4,10.6,12.4C262.3,171.7,266.3,166.8,266.3,159.2z"/>
			<path d="M280.9,140.3h6.9c0.4,0,0.8,0.3,0.8,0.8v15.4l12.9-15.9c0.1-0.2,0.4-0.3,0.6-0.3h7.5c0.4,0,0.7,0.5,0.4,0.9l-14.1,16.9
				l14.9,19c0.3,0.3,0,0.9-0.4,0.9H302c-0.2,0-0.5-0.1-0.6-0.3l-12.7-16.6v16c0,0.4-0.3,0.8-0.8,0.8h-6.9c-0.4,0-0.8-0.3-0.8-0.8
				v-36C280,140.7,280.4,140.3,280.9,140.3z"/>
			<g>
				<path d="M325.2,158.4l-10.3-17.3c-0.2-0.4,0-1,0.6-1h8c0.2,0,0.4,0.1,0.6,0.3l6.4,11.2h0.3l6.4-11.2c0.1-0.2,0.3-0.3,0.6-0.3h8
					c0.5,0,0.8,0.6,0.6,1l-10.4,17.3l10.9,18.3c0.3,0.4,0,1-0.6,1h-8.2c-0.2,0-0.5-0.1-0.6-0.3l-6.8-12.3h-0.3l-6.8,12.3
					c-0.1,0.2-0.3,0.3-0.6,0.3H315c-0.5,0-0.8-0.6-0.6-1L325.2,158.4z"/>
			</g>
		</g>
		<g>
			<path d="M236.5,199.8c0-0.4,0.3-0.8,0.8-0.8h14c8.2,0,12.5,3.4,12.5,9.8v0.2c0,4-1.9,6.8-6.1,8.1c4.9,1,7.5,3.8,7.5,8.8v0.2
				c0,6.9-4.5,10.5-13.2,10.5h-14.7c-0.4,0-0.8-0.3-0.8-0.8L236.5,199.8L236.5,199.8z M249.9,214.5c4.1,0,5.7-1.5,5.7-4.9v-0.2
				c0-3.2-1.8-4.6-5.8-4.6h-4.5c-0.3,0-0.5,0.2-0.5,0.5v8.5c0,0.3,0.2,0.5,0.5,0.5L249.9,214.5L249.9,214.5z M250.6,230.8
				c4.2,0,6.1-1.9,6.1-5.3v-0.2c0-3.5-1.9-5.3-6.5-5.3h-4.9c-0.3,0-0.5,0.2-0.5,0.5v9.7c0,0.3,0.2,0.5,0.5,0.5L250.6,230.8
				L250.6,230.8z"/>
			<path d="M270.2,196.6h5.9c0.4,0,0.8,0.3,0.8,0.8v38.3c0,0.4-0.3,0.8-0.8,0.8h-5.9c-0.4,0-0.8-0.3-0.8-0.8v-38.3
				C269.4,197,269.7,196.6,270.2,196.6z"/>
			<path d="M280.9,223.2v-0.4c0-8.6,6.2-14.3,14.5-14.3c8.3,0,14.5,5.5,14.5,14.1v0.4c0,8.7-6.2,14.2-14.5,14.2
				C287.1,237.2,280.9,231.8,280.9,223.2z M302.2,223v-0.3c0-5.3-2.5-8.4-6.7-8.4c-4.2,0-6.7,3.1-6.7,8.3v0.4c0,5.3,2.4,8.4,6.7,8.4
				C299.7,231.4,302.2,228.3,302.2,223z"/>
			<path d="M312,223.2v-0.4c0-8.9,6.4-14.3,14.2-14.3c6.1,0,11.8,2.6,12.8,9.8c0,0.5-0.3,0.9-0.8,0.9h-5.8c-0.2,0-0.5-0.2-0.5-0.4
				c-0.6-2.9-2.5-4.3-5.5-4.3c-4,0-6.6,2.9-6.6,8.2v0.4c0,5.5,2.5,8.4,6.7,8.4c2.9,0,5.3-1.6,5.8-4.9c0-0.2,0.2-0.4,0.5-0.4h5.5
				c0.5,0,0.9,0.4,0.8,0.9c-0.8,6-5.4,10.2-13.1,10.2C318.1,237.2,312,232.2,312,223.2z"/>
			<path d="M343.6,196.6h6c0.4,0,0.8,0.3,0.8,0.8v22c0,0.4,0.5,0.5,0.7,0.2l7.9-10.5c0.1-0.1,0.2-0.2,0.4-0.2h6.7
				c0.4,0,0.7,0.5,0.4,0.9l-9.3,11.6l10.2,14.1c0.2,0.3,0,0.9-0.4,0.9h-7.3c-0.2,0-0.3-0.1-0.4-0.2l-8.2-11.7
				c-0.2-0.3-0.7-0.1-0.7,0.2v10.9c0,0.4-0.3,0.8-0.8,0.8h-6c-0.4,0-0.8-0.3-0.8-0.8v-38.3C342.8,197,343.1,196.6,343.6,196.6z"/>
			<path d="M367.9,223.3v-0.4c0-9.1,5.2-14.4,12.1-14.4c4.2,0,6.9,1.7,8.4,4.3c0,0.1,0.2,0,0.2,0v-15.3c0-0.4,0.3-0.8,0.8-0.8h5.9
				c0.4,0,0.8,0.3,0.8,0.8v38.3c0,0.4-0.3,0.8-0.8,0.8h-5.9c-0.4,0-0.8-0.3-0.8-0.8v-3.2c0-0.1-0.2-0.2-0.2,0
				c-1.5,2.6-4.8,4.7-8.6,4.7C373.2,237.2,367.9,232.5,367.9,223.3z M388.9,223v-0.4c0-5.4-2.4-8.3-6.6-8.3c-4.3,0-6.6,2.9-6.6,8.4
				v0.4c0,5.4,2.6,8.2,6.4,8.2C386.1,231.3,388.9,228.6,388.9,223z"/>
			<path d="M402.6,209.1h6c0.4,0,0.8,0.3,0.8,0.8v4.5c1.6-3.4,4.1-5.3,8-5.6c0.5,0,0.9,0.3,0.9,0.8v5.4c0,0.4-0.3,0.8-0.8,0.8
				c-5.2,0.1-8.1,2-8.1,7v13c0,0.4-0.3,0.8-0.8,0.8h-6c-0.4,0-0.8-0.3-0.8-0.8v-25.9C401.8,209.5,402.1,209.1,402.6,209.1z"/>
			<path d="M419.8,223.2v-0.4c0-8.7,6.1-14.3,14.2-14.3c7.1,0,13.4,4.2,13.4,14v1.3c0,0.4-0.3,0.8-0.8,0.8h-18.4
				c-0.3,0-0.6,0.3-0.5,0.6c0.4,4.2,2.8,6.6,6.8,6.6c3.2,0,5-1.3,5.6-3.3c0.1-0.3,0.4-0.5,0.8-0.5h5.5c0.5,0,0.9,0.5,0.8,1
				c-1.2,5.3-5.9,8.2-13,8.2C425.9,237.2,419.8,232,419.8,223.2z M439.4,219.9c0.3,0,0.6-0.3,0.5-0.6c-0.4-3.8-2.5-5.5-5.9-5.5
				c-3.2,0-5.4,2-6.2,5.5c0,0.3,0.2,0.6,0.5,0.6L439.4,219.9L439.4,219.9z"/>
			<path d="M449.6,229c0-6.4,5.9-8.8,14.3-8.8h3c0.1,0,0.1,0,0.1-0.1v-1c0-3.3-1-5.1-4.5-5.1c-2.7,0-4.1,1.2-4.6,3.3
				c-0.1,0.3-0.4,0.6-0.8,0.6h-5.6c-0.5,0-0.9-0.4-0.8-0.9c0.9-5.8,5.8-8.5,12.3-8.5c6.7,0,11.5,2.7,11.5,10.2v17.1
				c0,0.4-0.3,0.8-0.8,0.8H468c-0.4,0-0.8-0.3-0.8-0.8v-2.5c-1.6,2.2-4,3.9-8.3,3.9C453.8,237.2,449.6,234.8,449.6,229z M466.9,227
				v-2.2c0-0.1,0-0.1-0.1-0.1H464c-4.4,0-7,0.9-7,3.9c0,2,1.2,3.3,4,3.3C464.4,231.9,466.9,230.1,466.9,227z"/>
			<path d="M480.5,209.1h6c0.4,0,0.8,0.3,0.8,0.8v2.9c0,0.1,0.2,0.2,0.2,0c1.4-2.4,4.3-4.4,8.2-4.4c3.6,0,6.2,1.4,7.6,4.6
				c0,0.1,0.2,0.1,0.2,0c2.2-3.2,5.7-4.6,9.1-4.6c5.1,0,9.1,3.2,9.1,10.5v16.8c0,0.4-0.3,0.8-0.8,0.8H515c-0.4,0-0.8-0.3-0.8-0.8
				v-15.9c0-3.5-1.6-5.1-4.3-5.1c-2.9,0-5.3,1.9-5.3,5.6v15.5c0,0.4-0.3,0.8-0.8,0.8h-5.9c-0.4,0-0.8-0.3-0.8-0.8v-15.9
				c0-3.5-1.6-5.1-4.3-5.1c-2.9,0-5.3,1.9-5.3,5.6v15.5c0,0.4-0.3,0.8-0.8,0.8h-5.9c-0.4,0-0.8-0.3-0.8-0.8V210
				C479.7,209.5,480.1,209.1,480.5,209.1z"/>
		</g>
		<g>
			<path d="M237.3,255.6h7.2c0.3,0,0.7,0.2,0.8,0.6l8.6,27.9c0,0.1,0.2,0.1,0.2,0l8.6-27.9c0.1-0.3,0.4-0.6,0.8-0.6h6.2
				c0.5,0,0.9,0.5,0.8,1.1l-12,36c-0.1,0.3-0.4,0.5-0.8,0.5h-8.6c-0.3,0-0.6-0.2-0.8-0.5l-12-36
				C236.3,256.2,236.7,255.6,237.3,255.6z"/>
			<path d="M268.9,279.8v-0.4c0-8.7,6.1-14.3,14.2-14.3c7.1,0,13.4,4.2,13.4,14v1.3c0,0.4-0.3,0.8-0.8,0.8h-18.4
				c-0.3,0-0.6,0.3-0.5,0.6c0.4,4.2,2.8,6.6,6.8,6.6c3.2,0,5-1.3,5.6-3.3c0.1-0.3,0.4-0.5,0.8-0.5h5.5c0.5,0,0.9,0.5,0.8,1
				c-1.2,5.3-5.9,8.2-13,8.2C275,293.8,268.9,288.6,268.9,279.8z M288.5,276.5c0.3,0,0.6-0.3,0.5-0.6c-0.4-3.8-2.5-5.5-5.9-5.5
				c-3.2,0-5.4,2-6.2,5.5c0,0.3,0.2,0.6,0.5,0.6L288.5,276.5L288.5,276.5z"/>
			<path d="M301,265.7h6c0.4,0,0.8,0.3,0.8,0.8v3c0,0.1,0.2,0.2,0.2,0c1.5-2.5,4.4-4.5,8.7-4.5c5.4,0,9.3,3.3,9.3,10.6v16.6
				c0,0.4-0.3,0.8-0.8,0.8h-6c-0.4,0-0.8-0.3-0.8-0.8v-15.6c0-3.7-1.5-5.5-4.9-5.5c-3.3,0-5.7,2-5.7,6v15.1c0,0.4-0.3,0.8-0.8,0.8
				h-6c-0.4,0-0.8-0.3-0.8-0.8v-25.9C300.2,266.1,300.6,265.7,301,265.7z"/>
			<path d="M332.4,285.1v-13.8c0-0.1,0-0.1-0.1-0.1h-2.6c-0.4,0-0.8-0.3-0.8-0.8v-3.8c0-0.4,0.3-0.8,0.8-0.8h2.7v-5.1
				c0-0.4,0.3-0.8,0.8-0.8h5.9c0.4,0,0.8,0.3,0.8,0.8v5.1h5c0.4,0,0.8,0.3,0.8,0.8v3.8c0,0.4-0.3,0.8-0.8,0.8h-4.9
				c-0.1,0-0.1,0-0.1,0.1v13.1c0,2.2,1.1,3.3,3.1,3.3c0.7,0,1.3,0,1.9-0.2c0.5-0.1,1,0.2,1,0.8v4.2c0,0.3-0.2,0.7-0.6,0.8
				c-1,0.3-2.3,0.5-4.1,0.5C335.5,293.8,332.4,290.8,332.4,285.1z"/>
			<path d="M349.6,283.5v-16.9c0-0.4,0.3-0.8,0.8-0.8h5.9c0.4,0,0.8,0.3,0.8,0.8v15.9c0,3.7,1.5,5.5,4.8,5.5c3.2,0,5.7-2,5.7-6
				v-15.4c0-0.4,0.3-0.8,0.8-0.8h5.9c0.4,0,0.8,0.3,0.8,0.8v25.9c0,0.4-0.3,0.8-0.8,0.8h-5.9c-0.4,0-0.8-0.3-0.8-0.8v-3.5
				c-1.4,2.8-4.2,4.9-8.7,4.9C353.6,293.8,349.6,290.7,349.6,283.5z"/>
			<path d="M381.5,265.7h6c0.4,0,0.8,0.3,0.8,0.8v4.5c1.6-3.4,4.1-5.3,8-5.6c0.5,0,0.9,0.3,0.9,0.8v5.4c0,0.4-0.3,0.8-0.8,0.8
				c-5.2,0.1-8.1,2-8.1,7v12.9c0,0.4-0.3,0.8-0.8,0.8h-6c-0.4,0-0.8-0.3-0.8-0.8v-25.9C380.7,266.1,381,265.7,381.5,265.7z"/>
			<path d="M398.7,279.8v-0.4c0-8.7,6.1-14.3,14.2-14.3c7.1,0,13.4,4.2,13.4,14v1.3c0,0.4-0.3,0.8-0.8,0.8H407
				c-0.3,0-0.6,0.3-0.5,0.6c0.4,4.2,2.8,6.6,6.8,6.6c3.2,0,5-1.3,5.6-3.3c0.1-0.3,0.4-0.5,0.8-0.5h5.5c0.5,0,0.9,0.5,0.8,1
				c-1.2,5.3-5.9,8.2-13,8.2C404.7,293.8,398.7,288.6,398.7,279.8z M418.3,276.5c0.3,0,0.6-0.3,0.5-0.6c-0.4-3.8-2.5-5.5-5.9-5.5
				c-3.2,0-5.4,2-6.2,5.5c0,0.3,0.2,0.6,0.5,0.6L418.3,276.5L418.3,276.5z"/>
			<path d="M429.1,284.6h5.5c0.4,0,0.7,0.2,0.8,0.6c0.4,2.1,1.7,3.3,4.8,3.3c2.9,0,4.3-1.1,4.3-3c0-1.9-1.6-2.7-5.6-3.3
				c-7.3-1.1-10.2-3.2-10.2-8.6c0-5.7,5.3-8.6,10.9-8.6c5.8,0,10.2,2,11.2,7.5c0.1,0.5-0.3,1-0.8,1h-5.4c-0.3,0-0.7-0.2-0.8-0.6
				c-0.5-1.9-1.8-2.7-4.2-2.7c-2.5,0-3.9,1.1-3.9,2.8c0,1.7,1.3,2.4,5.3,3c6.9,1,10.7,2.7,10.7,8.6c0,5.9-4.3,9.1-11.6,9.1
				c-7,0-11.2-2.9-11.9-8.3C428.3,285.1,428.6,284.6,429.1,284.6z"/>
		</g>
	</g>
	<g>
		<path d="M97.6,191.7H50.5c-1.3,0-2.4-1.1-2.4-2.4v-47.1c0-1.3,1.1-2.4,2.4-2.4h47.1c1.3,0,2.4,1.1,2.4,2.4v47.1
			C100.1,190.6,99,191.7,97.6,191.7z"/>
		<path d="M199.5,191.8h-47.1c-1.3,0-2.4-1.1-2.4-2.4v-47.1c0-1.3,1.1-2.4,2.4-2.4h47.1c1.3,0,2.4,1.1,2.4,2.4v47.1
			C201.9,190.7,200.8,191.8,199.5,191.8z"/>
		<path d="M97.6,293.8H50.5c-1.3,0-2.4-1.1-2.4-2.4v-47.1c0-1.3,1.1-2.4,2.4-2.4h47.1c1.3,0,2.4,1.1,2.4,2.4v47.1
			C100.1,292.6,99,293.8,97.6,293.8z"/>
		<path d="M199.5,293.8h-47.1c-1.3,0-2.4-1.1-2.4-2.4v-47.1c0-1.3,1.1-2.4,2.4-2.4h47.1c1.3,0,2.4,1.1,2.4,2.4v47.1
			C201.9,292.7,200.8,293.8,199.5,293.8z"/>
		<path d="M148.6,243h-47.1c-1.3,0-2.4-1.1-2.4-2.4v-47.1c0-1.3,1.1-2.4,2.4-2.4h47.1c1.3,0,2.4,1.1,2.4,2.4v47.1
			C151.1,241.9,150,243,148.6,243z"/>
	</g>
</g>
</svg>
