<svg width="43" height="42" viewBox="0 0 43 42" fill="none" xmlns="http://www.w3.org/2000/svg">
<g clip-path="url(#clip0_695_62613)" filter="url(#filter0_d_695_62613)">
<path fill-rule="evenodd" clip-rule="evenodd" d="M10.832 6.375C10.832 5.82272 10.3843 5.375 9.83203 5.375C9.27975 5.375 8.83203 5.82272 8.83203 6.375V16.5833C8.83203 17.1356 9.27975 17.5833 9.83203 17.5833C10.3843 17.5833 10.832 17.1356 10.832 16.5833V6.375ZM8.83203 23.416H5.45703C4.90475 23.416 4.45703 22.9683 4.45703 22.416C4.45703 21.8637 4.90475 21.416 5.45703 21.416H9.83203H14.207C14.7593 21.416 15.207 21.8637 15.207 22.416C15.207 22.9683 14.7593 23.416 14.207 23.416H10.832V32.6243C10.832 33.1766 10.3843 33.6243 9.83203 33.6243C9.27975 33.6243 8.83203 33.1766 8.83203 32.6243V23.416ZM21.5 18.5C22.0523 18.5 22.5 18.9477 22.5 19.5V32.625C22.5 33.1773 22.0523 33.625 21.5 33.625C20.9477 33.625 20.5 33.1773 20.5 32.625V19.5C20.5 18.9477 20.9477 18.5 21.5 18.5ZM22.5 6.375C22.5 5.82272 22.0523 5.375 21.5 5.375C20.9477 5.375 20.5 5.82272 20.5 6.375V12.666H17.125C16.5727 12.666 16.125 13.1137 16.125 13.666C16.125 14.2183 16.5727 14.666 17.125 14.666H21.4636C21.4681 14.6662 21.4725 14.6663 21.477 14.6664C21.4847 14.6666 21.4923 14.6667 21.5 14.6667C21.5122 14.6667 21.5243 14.6664 21.5364 14.666H25.875C26.4273 14.666 26.875 14.2183 26.875 13.666C26.875 13.1137 26.4273 12.666 25.875 12.666H22.5V6.375ZM33.1641 5.375C33.7163 5.375 34.1641 5.82272 34.1641 6.375V19.5C34.1641 20.0523 33.7163 20.5 33.1641 20.5C32.6118 20.5 32.1641 20.0523 32.1641 19.5V6.375C32.1641 5.82272 32.6118 5.375 33.1641 5.375ZM27.7891 25.334C27.7891 24.7817 28.2368 24.334 28.7891 24.334H33.1641H37.5391C38.0913 24.334 38.5391 24.7817 38.5391 25.334C38.5391 25.8863 38.0913 26.334 37.5391 26.334H34.1641V32.6257C34.1641 33.1779 33.7163 33.6257 33.1641 33.6257C32.6118 33.6257 32.1641 33.1779 32.1641 32.6257V26.334H28.7891C28.2368 26.334 27.7891 25.8863 27.7891 25.334Z" fill="#FFA800"/>
<g filter="url(#filter1_f_695_62613)">
<path fill-rule="evenodd" clip-rule="evenodd" d="M10.832 6.375C10.832 5.82272 10.3843 5.375 9.83203 5.375C9.27975 5.375 8.83203 5.82272 8.83203 6.375V16.5833C8.83203 17.1356 9.27975 17.5833 9.83203 17.5833C10.3843 17.5833 10.832 17.1356 10.832 16.5833V6.375ZM8.83203 23.416H5.45703C4.90475 23.416 4.45703 22.9683 4.45703 22.416C4.45703 21.8637 4.90475 21.416 5.45703 21.416H9.83203H14.207C14.7593 21.416 15.207 21.8637 15.207 22.416C15.207 22.9683 14.7593 23.416 14.207 23.416H10.832V32.6243C10.832 33.1766 10.3843 33.6243 9.83203 33.6243C9.27975 33.6243 8.83203 33.1766 8.83203 32.6243V23.416ZM21.5 18.5C22.0523 18.5 22.5 18.9477 22.5 19.5V32.625C22.5 33.1773 22.0523 33.625 21.5 33.625C20.9477 33.625 20.5 33.1773 20.5 32.625V19.5C20.5 18.9477 20.9477 18.5 21.5 18.5ZM22.5 6.375C22.5 5.82272 22.0523 5.375 21.5 5.375C20.9477 5.375 20.5 5.82272 20.5 6.375V12.666H17.125C16.5727 12.666 16.125 13.1137 16.125 13.666C16.125 14.2183 16.5727 14.666 17.125 14.666H21.4636C21.4681 14.6662 21.4725 14.6663 21.477 14.6664C21.4847 14.6666 21.4923 14.6667 21.5 14.6667C21.5122 14.6667 21.5243 14.6664 21.5364 14.666H25.875C26.4273 14.666 26.875 14.2183 26.875 13.666C26.875 13.1137 26.4273 12.666 25.875 12.666H22.5V6.375ZM33.1641 5.375C33.7163 5.375 34.1641 5.82272 34.1641 6.375V19.5C34.1641 20.0523 33.7163 20.5 33.1641 20.5C32.6118 20.5 32.1641 20.0523 32.1641 19.5V6.375C32.1641 5.82272 32.6118 5.375 33.1641 5.375ZM27.7891 25.334C27.7891 24.7817 28.2368 24.334 28.7891 24.334H33.1641H37.5391C38.0913 24.334 38.5391 24.7817 38.5391 25.334C38.5391 25.8863 38.0913 26.334 37.5391 26.334H34.1641V32.6257C34.1641 33.1779 33.7163 33.6257 33.1641 33.6257C32.6118 33.6257 32.1641 33.1779 32.1641 32.6257V26.334H28.7891C28.2368 26.334 27.7891 25.8863 27.7891 25.334Z" fill="#FFA800"/>
</g>
</g>
<defs>
<filter id="filter0_d_695_62613" x="-2" y="0" width="47" height="47" filterUnits="userSpaceOnUse" color-interpolation-filters="sRGB">
<feFlood flood-opacity="0" result="BackgroundImageFix"/>
<feColorMatrix in="SourceAlpha" type="matrix" values="0 0 0 0 0 0 0 0 0 0 0 0 0 0 0 0 0 0 127 0" result="hardAlpha"/>
<feOffset dy="4"/>
<feGaussianBlur stdDeviation="2"/>
<feComposite in2="hardAlpha" operator="out"/>
<feColorMatrix type="matrix" values="0 0 0 0 0 0 0 0 0 0 0 0 0 0 0 0 0 0 0.25 0"/>
<feBlend mode="normal" in2="BackgroundImageFix" result="effect1_dropShadow_695_62613"/>
<feBlend mode="normal" in="SourceGraphic" in2="effect1_dropShadow_695_62613" result="shape"/>
</filter>
<filter id="filter1_f_695_62613" x="0.457031" y="1.375" width="42.082" height="36.25" filterUnits="userSpaceOnUse" color-interpolation-filters="sRGB">
<feFlood flood-opacity="0" result="BackgroundImageFix"/>
<feBlend mode="normal" in="SourceGraphic" in2="BackgroundImageFix" result="shape"/>
<feGaussianBlur stdDeviation="2" result="effect1_foregroundBlur_695_62613"/>
</filter>
<clipPath id="clip0_695_62613">
<rect width="39" height="39" fill="white" transform="translate(2)"/>
</clipPath>
</defs>
</svg>
