<svg width="35" height="29" viewBox="0 0 35 29" fill="none" xmlns="http://www.w3.org/2000/svg">
<path fill-rule="evenodd" clip-rule="evenodd" d="M6.83203 1.375C6.83203 0.822715 6.38432 0.375 5.83203 0.375C5.27975 0.375 4.83203 0.822715 4.83203 1.375V11.5833C4.83203 12.1356 5.27975 12.5833 5.83203 12.5833C6.38432 12.5833 6.83203 12.1356 6.83203 11.5833V1.375ZM4.83203 18.416H1.45703C0.904746 18.416 0.457031 17.9683 0.457031 17.416C0.457031 16.8637 0.904746 16.416 1.45703 16.416H5.83203H10.207C10.7593 16.416 11.207 16.8637 11.207 17.416C11.207 17.9683 10.7593 18.416 10.207 18.416H6.83203V27.6243C6.83203 28.1766 6.38432 28.6243 5.83203 28.6243C5.27975 28.6243 4.83203 28.1766 4.83203 27.6243V18.416ZM17.5 13.5C18.0523 13.5 18.5 13.9477 18.5 14.5V27.625C18.5 28.1773 18.0523 28.625 17.5 28.625C16.9477 28.625 16.5 28.1773 16.5 27.625V14.5C16.5 13.9477 16.9477 13.5 17.5 13.5ZM18.5 1.375C18.5 0.822715 18.0523 0.375 17.5 0.375C16.9477 0.375 16.5 0.822715 16.5 1.375V7.66602H13.125C12.5727 7.66602 12.125 8.11373 12.125 8.66602C12.125 9.2183 12.5727 9.66602 13.125 9.66602H17.4636C17.4681 9.66618 17.4725 9.66631 17.477 9.66641C17.4847 9.66658 17.4923 9.66667 17.5 9.66667C17.5122 9.66667 17.5243 9.66645 17.5364 9.66602H21.875C22.4273 9.66602 22.875 9.2183 22.875 8.66602C22.875 8.11373 22.4273 7.66602 21.875 7.66602H18.5V1.375ZM29.1641 0.375C29.7163 0.375 30.1641 0.822715 30.1641 1.375V14.5C30.1641 15.0523 29.7163 15.5 29.1641 15.5C28.6118 15.5 28.1641 15.0523 28.1641 14.5V1.375C28.1641 0.822715 28.6118 0.375 29.1641 0.375ZM23.7891 20.334C23.7891 19.7817 24.2368 19.334 24.7891 19.334H29.1641H33.5391C34.0913 19.334 34.5391 19.7817 34.5391 20.334C34.5391 20.8863 34.0913 21.334 33.5391 21.334H30.1641V27.6257C30.1641 28.1779 29.7163 28.6257 29.1641 28.6257C28.6118 28.6257 28.1641 28.1779 28.1641 27.6257V21.334H24.7891C24.2368 21.334 23.7891 20.8863 23.7891 20.334Z" fill="#FFA800"/>
</svg>
