<?xml version="1.0" encoding="UTF-8"?>
<!DOCTYPE svg PUBLIC "-//W3C//DTD SVG 1.1//EN" "http://www.w3.org/Graphics/SVG/1.1/DTD/svg11.dtd">
<svg xmlns="http://www.w3.org/2000/svg" version="1.1" width="512px" height="512px" style="shape-rendering:geometricPrecision; text-rendering:geometricPrecision; image-rendering:optimizeQuality; fill-rule:evenodd; clip-rule:evenodd" xmlns:xlink="http://www.w3.org/1999/xlink">
<g><path style="opacity:0.998" fill="#ff4b55" d="M 511.5,116.5 C 511.5,208.833 511.5,301.167 511.5,393.5C 507.244,409.587 496.91,419.421 480.5,423C 330.5,423.667 180.5,423.667 30.5,423C 14.0898,419.421 3.75644,409.587 -0.5,393.5C -0.5,301.5 -0.5,209.5 -0.5,117.5C 3.76891,101.4 14.1022,91.5665 30.5,88C 180.5,87.3333 330.5,87.3333 480.5,88C 496.457,91.4595 506.79,100.96 511.5,116.5 Z"/></g>
<g><path style="opacity:1" fill="#ffe059" d="M 253.5,152.5 C 256.808,151.974 258.974,153.307 260,156.5C 267.641,179.757 275.475,202.924 283.5,226C 308.833,226.333 334.167,226.667 359.5,227C 363.521,230.996 362.855,234.329 357.5,237C 337.875,250.642 318.875,264.975 300.5,280C 308.439,303.484 315.773,327.151 322.5,351C 322.441,352.436 322.108,353.769 321.5,355C 319.029,355.706 316.695,355.373 314.5,354C 294.973,339.64 275.306,325.473 255.5,311.5C 234.879,327.052 213.712,341.718 192,355.5C 190.893,355.415 189.893,355.081 189,354.5C 188.39,350.764 188.723,347.097 190,343.5C 196.837,322.322 203.67,301.156 210.5,280C 190.952,264.542 170.952,249.542 150.5,235C 147.626,231.949 147.959,229.282 151.5,227C 176.833,226.667 202.167,226.333 227.5,226C 235.525,202.924 243.359,179.757 251,156.5C 251.662,155.016 252.496,153.683 253.5,152.5 Z"/></g>
</svg>
