<svg width="21" height="13" viewBox="0 0 21 13" fill="none" xmlns="http://www.w3.org/2000/svg">
<path d="M20.8342 12.1042C20.7285 12.3587 20.5262 12.561 20.2717 12.6667C20.1464 12.72 20.012 12.7484 19.8758 12.75H14.6675C14.3912 12.75 14.1263 12.6403 13.9309 12.4449C13.7356 12.2496 13.6258 11.9846 13.6258 11.7083C13.6258 11.4321 13.7356 11.1671 13.9309 10.9718C14.1263 10.7764 14.3912 10.6667 14.6675 10.6667H17.3654L11.5425 4.84375L8.11541 8.28125C8.01858 8.37888 7.90337 8.45638 7.77643 8.50926C7.6495 8.56215 7.51334 8.58937 7.37583 8.58937C7.23832 8.58937 7.10217 8.56215 6.97523 8.50926C6.84829 8.45638 6.73308 8.37888 6.63625 8.28125L0.386248 2.03125C0.288614 1.93441 0.21112 1.8192 0.158236 1.69227C0.105352 1.56533 0.078125 1.42918 0.078125 1.29167C0.078125 1.15415 0.105352 1.018 0.158236 0.891067C0.21112 0.76413 0.288614 0.648921 0.386248 0.552085C0.483085 0.454451 0.598294 0.376955 0.725231 0.324071C0.852168 0.271187 0.988319 0.24396 1.12583 0.24396C1.26334 0.24396 1.3995 0.271187 1.52643 0.324071C1.65337 0.376955 1.76858 0.454451 1.86541 0.552085L7.37583 6.07292L10.8029 2.63542C10.8998 2.53778 11.015 2.46029 11.1419 2.40741C11.2688 2.35452 11.405 2.32729 11.5425 2.32729C11.68 2.32729 11.8162 2.35452 11.9431 2.40741C12.07 2.46029 12.1852 2.53778 12.2821 2.63542L18.8342 9.19792V6.5C18.8342 6.22373 18.9439 5.95878 19.1393 5.76343C19.3346 5.56808 19.5996 5.45833 19.8758 5.45833C20.1521 5.45833 20.4171 5.56808 20.6124 5.76343C20.8078 5.95878 20.9175 6.22373 20.9175 6.5V11.7083C20.9159 11.8445 20.8875 11.9789 20.8342 12.1042Z" fill="#FA2256"/>
</svg>
