<svg width="21" height="13" viewBox="0 0 21 13" fill="none" xmlns="http://www.w3.org/2000/svg">
<path d="M20.8342 0.895833C20.7285 0.641303 20.5262 0.439036 20.2717 0.333333C20.1464 0.279957 20.012 0.251646 19.8758 0.25H14.6675C14.3912 0.25 14.1263 0.359747 13.9309 0.555097C13.7356 0.750448 13.6258 1.0154 13.6258 1.29167C13.6258 1.56793 13.7356 1.83289 13.9309 2.02824C14.1263 2.22359 14.3912 2.33333 14.6675 2.33333H17.3654L11.5425 8.15625L8.11541 4.71875C8.01858 4.62112 7.90337 4.54362 7.77643 4.49074C7.6495 4.43785 7.51334 4.41063 7.37583 4.41063C7.23832 4.41063 7.10217 4.43785 6.97523 4.49074C6.84829 4.54362 6.73308 4.62112 6.63625 4.71875L0.386248 10.9688C0.288614 11.0656 0.21112 11.1808 0.158236 11.3077C0.105352 11.4347 0.078125 11.5708 0.078125 11.7083C0.078125 11.8458 0.105352 11.982 0.158236 12.1089C0.21112 12.2359 0.288614 12.3511 0.386248 12.4479C0.483085 12.5455 0.598294 12.623 0.725231 12.6759C0.852168 12.7288 0.988319 12.756 1.12583 12.756C1.26334 12.756 1.3995 12.7288 1.52643 12.6759C1.65337 12.623 1.76858 12.5455 1.86541 12.4479L7.37583 6.92708L10.8029 10.3646C10.8998 10.4622 11.015 10.5397 11.1419 10.5926C11.2688 10.6455 11.405 10.6727 11.5425 10.6727C11.68 10.6727 11.8162 10.6455 11.9431 10.5926C12.07 10.5397 12.1852 10.4622 12.2821 10.3646L18.8342 3.80208V6.5C18.8342 6.77627 18.9439 7.04122 19.1393 7.23657C19.3346 7.43192 19.5996 7.54167 19.8758 7.54167C20.1521 7.54167 20.4171 7.43192 20.6124 7.23657C20.8078 7.04122 20.9175 6.77627 20.9175 6.5V1.29167C20.9159 1.15554 20.8875 1.02106 20.8342 0.895833Z" fill="#30E0A1"/>
</svg>
