<svg width="20" height="24" viewBox="0 0 20 24" fill="none" xmlns="http://www.w3.org/2000/svg">
<path d="M18.8275 16.7119L17.7344 15.9831V9.65625C17.7344 5.62852 14.6395 2.31061 10.7031 1.95417V0.703125C10.7031 0.314812 10.3883 0 10 0C9.61169 0 9.29688 0.314812 9.29688 0.703125V1.95417C5.36045 2.31061 2.26562 5.62852 2.26562 9.65625V15.9831L1.1725 16.7119C0.976844 16.8423 0.859375 17.0618 0.859375 17.2969V20.1094C0.859375 20.4977 1.17419 20.8125 1.5625 20.8125H6.19727C6.52731 22.6231 8.1063 24 10 24C11.8937 24 13.4727 22.6231 13.8027 20.8125H18.4375C18.8258 20.8125 19.1406 20.4977 19.1406 20.1094V17.2969C19.1406 17.0618 19.0231 16.8422 18.8275 16.7119ZM10 22.5938C8.88489 22.5938 7.94055 21.841 7.63942 20.8125H12.3606C12.0595 21.841 11.1151 22.5938 10 22.5938ZM17.7344 19.4062C17.0818 19.4062 3.03372 19.4062 2.26562 19.4062V17.6731L3.35875 16.9444C3.55436 16.814 3.67188 16.5945 3.67188 16.3594V9.65625C3.67188 6.16692 6.51067 3.32812 10 3.32812C13.4893 3.32812 16.3281 6.16692 16.3281 9.65625V16.3594C16.3281 16.5945 16.4456 16.814 16.6412 16.9444L17.7344 17.6731V19.4062Z" fill="white"/>
</svg>
